<!-- I have to remove all the strokes from each svg 
because that impedes me to override its values with css -->
<svg width="0" height="0" class="hidden">
  <symbol fill="none" xmlns="http://www.w3.org/2000/svg" viewBox="0 0 28 28" id="plus">
    <path d="M14 2v24M2 14h24" stroke="#181A18" stroke-width="2.5" stroke-linecap="round" stroke-linejoin="round"></path>
  </symbol>
  <symbol fill="none" xmlns="http://www.w3.org/2000/svg" viewBox="0 0 28 28" id="refresh">
    <path d="M25 1.778V9.11h-7.333" stroke="#181A18" stroke-width="2.5" stroke-linecap="round" stroke-linejoin="round"></path>
    <path d="M3 14a11 11 0 0 1 18.333-8.189L25 9.111M3 26.222V18.89h7.333" stroke="#181A18" stroke-width="2.5" stroke-linecap="round" stroke-linejoin="round"></path>
    <path d="M25 14a11 11 0 0 1-18.333 8.189L3 18.889" stroke="#181A18" stroke-width="2.5" stroke-linecap="round" stroke-linejoin="round"></path>
  </symbol>
  <symbol fill="none" xmlns="http://www.w3.org/2000/svg" viewBox="0 0 28 28" id="search">
    <path d="M12.874 23.283c6.006 0 10.875-4.869 10.875-10.875S18.88 1.534 12.875 1.534C6.868 1.534 2 6.402 2 12.408s4.869 10.875 10.874 10.875ZM26 26.433l-5.505-5.506" stroke="#181A18" stroke-width="2.5" stroke-linecap="round" stroke-linejoin="round"></path>
  </symbol>
  <symbol fill="none" xmlns="http://www.w3.org/2000/svg" viewBox="0 0 28 28" id="settings">
    <path d="M26 7H12M16 22H2M21.021 26.625a4.812 4.812 0 1 0 0-9.625 4.812 4.812 0 0 0 0 9.625ZM6.813 11.625a4.813 4.813 0 1 0 0-9.625 4.813 4.813 0 0 0 0 9.625Z" stroke="#181A18" stroke-width="2.5" stroke-linecap="round" stroke-linejoin="round"></path>
  </symbol>
  <symbol fill="none" xmlns="http://www.w3.org/2000/svg" viewBox="0 0 28 28" id="shopping-bag">
    <path d="M6.667 1.778 3 6.667v17.11a2.445 2.445 0 0 0 2.444 2.445h17.112A2.444 2.444 0 0 0 25 23.778V6.667l-3.667-4.89H6.667ZM3 6.667h22" stroke-width="2.5" stroke-linecap="round" stroke-linejoin="round"></path>
    <path d="M18.889 11.556a4.889 4.889 0 1 1-9.778 0"  stroke-width="2.5" stroke-linecap="round" stroke-linejoin="round"></path>
  </symbol>
  <symbol fill="none" xmlns="http://www.w3.org/2000/svg" viewBox="0 0 28 28" id="shopping-cart">
    <path d="M11.823 25.423a1.323 1.323 0 1 1-2.646 0 1.323 1.323 0 0 1 2.646 0Z" stroke="#181A18" stroke-width="2.2" stroke-linecap="round" stroke-linejoin="round"></path>
    <path d="M11 26c-.552 0-1-.224-1-.5s.448-.5 1-.5 1 .224 1 .5-.448.5-1 .5Z" stroke="#181A18" stroke-width="1.2" stroke-linecap="round" stroke-linejoin="round"></path>
    <path d="M24.656 25.423a1.323 1.323 0 1 1-2.646 0 1.323 1.323 0 0 1 2.646 0Z" stroke="#181A18" stroke-width="2.2" stroke-linecap="round" stroke-linejoin="round"></path>
    <path d="M24 27c.552 0 1-.672 1-1.5s-.448-1.5-1-1.5-1 .672-1 1.5.448 1.5 1 1.5Z" stroke="#181A18" stroke-width="1.2" stroke-linecap="round" stroke-linejoin="round"></path>
    <path d="M2 1.735 6.515 1.5l2.498 16.683A2.258 2.258 0 0 0 11.271 20h10.971a2.257 2.257 0 0 0 2.258-1.817l1.806-10.804H7.396" stroke="#181A18" stroke-width="2.5" stroke-linecap="round" stroke-linejoin="round"></path>
  </symbol>
  <symbol fill="none" xmlns="http://www.w3.org/2000/svg" viewBox="0 0 28 27" id="star">
    <path d="M13.494 1.026a.565.565 0 0 1 1.012 0l3.689 7.472a.565.565 0 0 0 .424.309l8.25 1.206a.565.565 0 0 1 .312.963l-5.968 5.813a.565.565 0 0 0-.163.5L22.46 25.5a.565.565 0 0 1-.82.595l-7.376-3.879a.565.565 0 0 0-.526 0l-7.376 3.88a.565.565 0 0 1-.82-.596L6.95 17.29a.565.565 0 0 0-.163-.5L.82 10.976a.565.565 0 0 1 .312-.963l8.25-1.206a.565.565 0 0 0 .424-.309l3.689-7.472Z" fill="#FFCC49"></path>
  </symbol>
  <symbol fill="none" xmlns="http://www.w3.org/2000/svg" viewBox="0 0 28 28" id="close">
    <path d="M26 2 2 26M2 2l24 24" stroke-width="2.5" stroke-linecap="round" stroke-linejoin="round"></path>
  </symbol>
  <symbol fill="none" xmlns="http://www.w3.org/2000/svg" viewBox="0 0 29 28" id="collapse">
    <g clip-path="url(#a)">
      <path d="M2 14h25" stroke="#181A18" stroke-width="2.5" stroke-linecap="round" stroke-linejoin="round"></path>
    </g>
    <defs>
      <clipPath id="a">
        <path fill="#fff" transform="translate(.5)" d="M0 0h28v28H0z"></path>
      </clipPath>
    </defs>
  </symbol>
  <symbol fill="none" xmlns="http://www.w3.org/2000/svg" viewBox="0 0 137 26" id="logo">
    <path d="M.632 18V1.2H11.48v2.472H3.704v4.704h6.288V10.8H3.704V18H.632Zm10.31 0 6.145-16.8h3.456L26.687 18h-3.264l-1.344-3.888h-6.552L14.159 18h-3.216Zm5.425-6.288h4.872L18.79 4.728l-2.424 6.984ZM28.85 18V1.2h3.072v6.792L38.139 1.2h3.792l-6.192 6.672L42.099 18H38.33l-4.8-7.776-1.608 1.752V18H28.85Zm15.351 0V1.2H55.17v2.472h-7.896V8.28h7.176v2.4h-7.176v4.848h7.896V18H44.202Zm25.33.288c-1.232 0-2.32-.208-3.264-.624-.944-.432-1.688-1.04-2.232-1.824-.544-.8-.824-1.768-.84-2.904h3.24c.032.784.312 1.448.84 1.992.544.528 1.288.792 2.232.792.816 0 1.464-.192 1.944-.576.48-.4.72-.928.72-1.584 0-.688-.216-1.224-.648-1.608-.416-.384-.976-.696-1.68-.936l-2.256-.768C66.292 9.8 65.3 9.224 64.612 8.52c-.672-.704-1.008-1.64-1.008-2.808-.016-.992.216-1.84.696-2.544.496-.72 1.168-1.272 2.016-1.656.848-.4 1.824-.6 2.928-.6 1.12 0 2.104.2 2.952.6.864.4 1.536.96 2.016 1.68.496.72.76 1.576.792 2.568h-3.288c-.016-.592-.248-1.112-.696-1.56-.432-.464-1.04-.696-1.824-.696-.672-.016-1.24.152-1.704.504-.448.336-.672.832-.672 1.488 0 .56.176 1.008.528 1.344.352.32.832.592 1.44.816.608.224 1.304.464 2.088.72.832.288 1.592.624 2.28 1.008.688.384 1.24.896 1.656 1.536.416.624.624 1.432.624 2.424 0 .88-.224 1.696-.672 2.448-.448.752-1.112 1.36-1.992 1.824-.88.448-1.96.672-3.24.672ZM81.817 18V3.672h-4.896V1.2H89.81v2.472h-4.92V18h-3.072Zm17.53.288c-1.68 0-3.151-.368-4.415-1.104a7.95 7.95 0 0 1-2.952-3.048c-.704-1.312-1.056-2.824-1.056-4.536 0-1.712.352-3.216 1.056-4.512.72-1.312 1.704-2.336 2.952-3.072C96.196 1.28 97.668.912 99.348.912c1.664 0 3.128.368 4.392 1.104a7.686 7.686 0 0 1 2.952 3.072c.704 1.296 1.056 2.8 1.056 4.512 0 1.712-.352 3.224-1.056 4.536a7.727 7.727 0 0 1-2.952 3.048c-1.264.736-2.728 1.104-4.392 1.104Zm0-2.76c1.601 0 2.873-.528 3.817-1.584.96-1.056 1.44-2.504 1.44-4.344 0-1.84-.48-3.288-1.44-4.344-.944-1.056-2.216-1.584-3.816-1.584-1.6 0-2.88.528-3.84 1.584s-1.44 2.504-1.44 4.344c0 1.84.48 3.288 1.44 4.344.96 1.056 2.24 1.584 3.84 1.584ZM110.46 18V1.2h6.168c1.344 0 2.448.232 3.312.696.88.448 1.536 1.064 1.968 1.848.432.768.648 1.624.648 2.568 0 1.024-.272 1.96-.816 2.808-.528.848-1.36 1.464-2.496 1.848l3.48 7.032h-3.528l-3.12-6.624h-2.544V18h-3.072Zm3.072-8.88h2.904c1.024 0 1.776-.248 2.256-.744.48-.496.72-1.152.72-1.968 0-.8-.24-1.44-.72-1.92-.464-.48-1.224-.72-2.28-.72h-2.88V9.12ZM125.413 18V1.2h10.968v2.472h-7.896V8.28h7.176v2.4h-7.176v4.848h7.896V18h-10.968Z" fill="#181A18"></path>
    <path fill="#FF5B49" d="M0 22h56v4H0z"></path>
  </symbol>
</svg>