<svg width="89" height="89" fill="none" xmlns="http://www.w3.org/2000/svg">
  <path fill="#F0F0F0" d="M0 0h89v89H0z"/>
  <path d="M11 63V26.4h23.6v5.4h-17V42h13.7v5.3H17.6V63H11Zm53.7.6c-2.7 0-5-.4-7.1-1.3-2-1-3.7-2.3-4.9-4A11.3 11.3 0 0 1 51 52h7c.1 1.7.8 3.1 1.9 4.3a6.7 6.7 0 0 0 4.9 1.7c1.7 0 3.2-.4 4.2-1.2 1-.9 1.6-2 1.6-3.5s-.5-2.6-1.4-3.5c-1-.8-2.2-1.5-3.7-2l-5-1.7c-2.7-1-5-2.2-6.4-3.8a8.5 8.5 0 0 1-2.2-6 9.3 9.3 0 0 1 6-9.2c1.8-1 3.9-1.3 6.3-1.3s4.6.4 6.4 1.3c2 .8 3.4 2 4.4 3.6 1.1 1.6 1.7 3.5 1.7 5.6h-7.1c0-1.3-.6-2.4-1.5-3.4-1-1-2.3-1.5-4-1.5-1.5 0-2.7.3-3.7 1.1-1 .7-1.5 1.8-1.5 3.2 0 1.3.4 2.2 1.2 3 .7.7 1.8 1.3 3.1 1.8l4.5 1.5a31 31 0 0 1 5 2.2 9.4 9.4 0 0 1 5 8.6 10.2 10.2 0 0 1-5.8 9.4c-2 1-4.3 1.4-7 1.4Z" fill="#181A18"/>
  <path fill="#FF5B49" d="M11 69.1h25v5.4H11z"/>
</svg>
